<svg width="688" height="200" viewBox="0 0 688 200" fill="none" xmlns="http://www.w3.org/2000/svg">
<path fill-rule="evenodd" clip-rule="evenodd" d="M326.465 186.598C333.716 186.54 358.52 164.169 373.015 148.688L421.009 24.7422L403.741 14.6907V10.3093L447.813 0H452.452L408.122 111.598H412.504C433.38 84.7936 451.679 69.5874 465.854 69.5874C476.163 69.5874 482.607 79.6389 482.607 94.5873C482.607 147.165 426.679 199.999 390.597 199.999C374.255 199.999 362.19 189.11 365.382 170.71C349.338 189.393 333.341 200 319.764 200C305.588 200 301.98 189.175 307.393 176.547L342.702 93.8149C344.764 88.918 345.537 84.0211 340.382 84.0211C333.939 84.0211 313.578 90.9799 290.382 119.846L258.424 197.423H237.032V192.268L278.527 93.8149C280.589 88.918 281.362 84.0211 276.207 84.0211C269.764 84.0211 249.145 91.7531 226.207 119.846L194.249 197.423H172.857V192.268L215.64 90.4644H188.321V87.6294C194.764 79.6397 207.135 69.5882 217.444 69.5882C228.011 69.5882 231.62 79.1242 231.62 93.2994V105.413C248.114 86.3407 265.382 69.5882 281.877 69.5882C298.372 69.5882 298.887 88.6603 295.795 105.413C312.032 86.5984 329.815 69.5882 349.66 69.5882C367.444 69.5882 369.506 85.5675 362.032 103.093L326.465 186.598ZM396.782 183.762C389.05 183.762 384.669 178.092 384.669 171.134L400.648 130.412C422.813 107.216 442.401 90.7214 452.452 90.7214C459.411 90.7214 463.019 96.1337 463.019 105.67C463.019 142.525 426.164 183.762 396.782 183.762ZM557.984 160.052H568.808C554.633 186.34 530.406 200 511.334 200C492.52 200 480.149 186.083 480.149 162.371C480.149 123.454 520.87 69.5882 561.334 69.5882C574.736 69.5882 584.788 76.8046 584.788 89.6912C584.788 104.64 571.386 118.557 542.262 132.475L501.798 151.804C501.772 152.039 501.746 152.271 501.72 152.5C501.491 154.541 501.283 156.394 501.283 158.248C501.283 174.485 508.242 182.217 519.324 182.217C532.726 182.217 547.417 174.485 557.984 160.052ZM552.829 81.4438C535.561 81.4438 511.334 113.66 503.86 141.753L529.118 128.351C552.571 115.98 563.138 103.609 563.138 90.9799C563.138 86.3407 559.788 81.4438 552.829 81.4438ZM632.974 104.382C647.407 81.1861 658.232 69.5882 670.087 69.5882C681.427 69.5882 686.84 83.2479 687.355 92.0108L669.314 103.866H664.933C661.84 96.1345 659.52 90.7221 655.139 90.7221C649.984 90.7221 644.314 97.9386 626.273 122.939L595.603 197.423H574.211V192.268L616.995 90.4644H589.675V87.6294C596.118 79.6397 608.489 69.5882 618.799 69.5882C629.366 69.5882 632.974 79.1242 632.974 93.2994V104.382ZM204.381 17.0102H65.7215L61.8555 27.3195C80.9276 28.0927 86.34 32.7318 81.4431 46.1338L36.8556 168.298C32.2164 181.185 21.134 186.34 3.86597 187.113L0 197.422H142.525L170.876 144.329H158.505C142.268 167.783 124.742 186.597 85.0513 186.597C61.8555 186.597 56.1854 180.412 61.34 166.494L81.4431 110.824H115.206C128.608 110.824 132.216 119.845 127.061 135.309H137.113L159.278 73.9688H149.226C143.299 89.4327 133.247 98.4533 119.845 98.4533H86.0822L111.34 28.8658H151.288C178.35 28.8658 180.927 40.7215 177.061 63.9173H187.371L204.381 17.0102Z" fill="#1534D1"/>
</svg>
