<svg width="400" height="400" viewBox="0 0 400 400" fill="none" xmlns="http://www.w3.org/2000/svg">
<rect width="400" height="400" fill="white"/>
<path fill-rule="evenodd" clip-rule="evenodd" d="M234.634 27.376C244.969 33.5525 239.041 46.7368 227.001 46.7367H198.717C233.729 47.8641 262.989 73.514 269.692 106.945C271.284 114.887 264.568 121.52 256.468 121.52H136.192C128.092 121.52 121.375 114.888 122.947 106.942C129.604 73.287 158.856 47.859 193.895 46.7367H165.264C153.224 46.7367 147.264 33.5221 157.583 27.319C168.861 20.5395 182.048 16.6667 195.947 16.6667C209.885 16.6667 223.23 20.5612 234.634 27.376ZM136.184 278.46C128.083 278.46 121.367 285.093 122.96 293.035C129.71 326.704 159.34 352.481 194.683 353.263H165.296C153.249 353.263 147.29 366.489 157.616 372.693C168.878 379.459 182.047 383.333 195.947 383.333C209.902 383.333 223.241 379.44 234.637 372.628C244.972 366.45 239.041 353.263 227.001 353.263H198.003C233.376 352.484 263 326.934 269.705 293.038C271.277 285.092 264.56 278.46 256.46 278.46L136.184 278.46ZM196.313 274.803C154.996 274.803 121.525 241.298 121.525 200.015C121.525 158.732 155.03 125.193 196.313 125.193C237.596 125.193 271.134 158.698 271.134 200.015C271.134 241.332 237.63 274.803 196.313 274.803ZM334.918 278.473C343.018 278.473 349.734 285.104 348.157 293.049C342.303 322.531 319.044 345.969 289.375 351.839C281.429 353.411 274.797 346.694 274.797 338.594V293.14C274.797 285.039 281.364 278.473 289.464 278.473H334.918ZM44.454 107.026C42.8764 114.971 49.5922 121.602 57.6923 121.602L103.147 121.602C111.247 121.602 117.813 115.036 117.813 106.936L117.813 61.4813C117.813 53.3812 111.182 46.6641 103.236 48.2364C73.5663 54.1069 50.308 77.544 44.454 107.026ZM44.4459 293.049C42.8688 285.104 49.5847 278.473 57.6849 278.473H103.139C111.24 278.473 117.806 285.039 117.806 293.14V338.594C117.806 346.694 111.175 353.411 103.229 351.839C73.5746 345.969 50.3013 322.547 44.4459 293.049ZM334.918 121.602C343.018 121.602 349.734 114.971 348.157 107.026C342.301 77.5283 319.028 54.1061 289.374 48.2369C281.428 46.6642 274.797 53.3812 274.797 61.4813V106.936C274.797 115.036 281.363 121.602 289.463 121.602L334.918 121.602ZM289.371 273.362C281.428 274.952 274.796 268.236 274.796 260.136V139.86C274.796 131.76 281.428 125.043 289.374 126.615C323.187 133.304 348.696 162.803 349.593 198.091V169.329C349.593 157.288 362.811 151.326 369.015 161.644C375.792 172.915 379.663 186.096 379.663 200.012C379.663 214.093 375.808 227.22 369.056 238.416C362.839 248.727 349.593 242.736 349.593 230.696V201.928C348.692 237.184 322.958 266.64 289.371 273.362ZM103.256 126.617C111.199 125.028 117.831 131.744 117.831 139.844V260.12C117.831 268.22 111.199 274.937 103.253 273.365C69.4398 266.676 43.931 237.176 43.0339 201.889V230.651C43.0339 242.691 29.8164 248.654 23.612 238.336C16.8351 227.065 12.9639 213.883 12.9639 199.968C12.9639 185.887 16.8193 172.76 23.5706 161.563C29.788 151.253 43.0339 157.244 43.0339 169.284V198.052C43.9351 162.796 69.6684 133.34 103.256 126.617Z" fill="#1534D1"/>
</svg>
